
      <svg data-logo="logo" xmlns="http://www.w3.org/2000/svg" viewBox="0 0 195.11000061035156 42" width="195.11000061035156" height="42">
        <g id="logogram" transform="
    translate(0, 0.5)
    rotate(0 23.5 20.5)
    
  "><path d="M39.8278 33.3026L39.8308 33.3061L33.3607 38.9831C32.0341 40.1758 30.3188 40.8515 28.5307 40.8849L28.5157 40.8852H6.3433C5.52252 40.9197 4.70461 40.766 3.9529 40.4361C3.18789 40.1004 2.51205 39.5912 1.97981 38.9489C1.44755 38.3069 1.07385 37.55 0.888129 36.7388C0.705857 35.9416 0.709812 35.1125 0.900558 34.3168L2.60764 25.6248C2.75949 24.8681 3.16084 24.1833 3.74828 23.6792L3.83198 23.6074C3.65027 23.3331 3.51734 23.0292 3.43941 22.709C3.33602 22.2843 3.3324 21.8424 3.42763 21.4174L5.13811 12.7091L5.14074 12.6968C5.47362 11.1342 6.31209 9.72339 7.52782 8.68041L13.4516 3.48275C13.7257 3.16967 14.0266 2.87803 14.3521 2.61141C15.6488 1.54924 17.2624 0.944386 18.9409 0.890845L18.9688 0.889954L41.1681 0.953502C41.988 0.919415 42.8049 1.07313 43.5558 1.40267C44.3209 1.73844 44.9967 2.24759 45.5289 2.88973C46.0611 3.53177 46.4349 4.28874 46.6206 5.10019C46.8031 5.89771 46.7988 6.72616 46.6084 7.52144L42.3681 29.1669L42.362 29.1933C41.9896 30.8017 41.0994 32.2445 39.8278 33.3026Z" fill="#042517"/><path d="M40.8216 2.95355C41.4048 2.92412 41.9868 3.03161 42.5211 3.26725C43.0554 3.50288 43.5272 3.86014 43.8988 4.31063C44.2703 4.76113 44.5313 5.29225 44.661 5.86162C44.7906 6.43099 44.7853 7.02284 44.6454 7.58977L40.4233 29.2491C40.1268 30.536 39.4127 31.6886 38.3925 32.5273C37.3723 33.3659 36.1032 33.8434 34.7832 33.8853H12.6929C12.1096 33.9143 11.5275 33.8068 10.993 33.5712C10.4585 33.3356 9.98642 32.9785 9.61431 32.5282C9.24221 32.078 8.98033 31.5471 8.84959 30.9778C8.71885 30.4086 8.72283 29.8165 8.86121 29.2491L10.566 20.4866C10.6659 20.0589 10.9045 19.6763 11.2445 19.3983C11.5845 19.1202 12.0069 18.9623 12.446 18.9492C16.4769 19.0926 20.3485 19.3952 23.9572 20.6937L24.7538 25.7043C24.7733 25.8253 24.8371 25.9346 24.9328 26.0112C25.0285 26.0877 25.1492 26.126 25.2716 26.1185C25.4122 26.1161 25.5496 26.0765 25.6699 26.0038C25.7902 25.931 25.8892 25.8277 25.9567 25.7043L28.6811 20.6937L34.13 18.9731C34.2618 18.9309 34.3804 18.8551 34.474 18.7532C34.5676 18.6512 34.633 18.5266 34.6637 18.3916C34.6949 18.2723 34.6802 18.1456 34.6228 18.0365C34.5653 17.9274 34.4691 17.8439 34.353 17.8021L29.5733 16.0894L28.7767 11.079C28.7573 10.9573 28.6938 10.847 28.5983 10.7691C28.5028 10.6913 28.382 10.6513 28.2589 10.6567C28.1175 10.66 27.9795 10.7008 27.8591 10.775C27.7387 10.8492 27.6402 10.9541 27.5738 11.079L24.8494 16.0894C20.8987 17.2226 16.8109 17.8071 12.7009 17.8261C12.5036 17.8429 12.3052 17.8124 12.1219 17.7376C11.9386 17.6627 11.7757 17.5456 11.6466 17.3955C11.5175 17.2454 11.4259 17.0667 11.3793 16.8743C11.3327 16.6819 11.3324 16.481 11.3785 16.2885L13.0833 7.52598C13.3782 6.23972 14.0907 5.0873 15.1096 4.2486C16.1285 3.40989 17.3964 2.93224 18.7154 2.88995L40.8216 2.95355Z" fill="#A9AFFE"/></g>
        <g id="logotype" transform="translate(53, 7.31201171875)"><path fill="#000000" d="M13.64 27L8.31 27L8.31 1.54L14.12 1.54L22.17 14.42Q22.78 15.41 23.41 16.58Q24.05 17.74 24.70 19.16Q25.36 20.57 26.01 22.35L26.01 22.35L25.48 22.35Q25.36 20.93 25.27 19.33Q25.17 17.72 25.11 16.25Q25.04 14.78 25.04 13.76L25.04 13.76L25.04 1.54L30.37 1.54L30.37 27L24.54 27L17.23 15.31Q16.42 13.99 15.74 12.76Q15.06 11.52 14.31 10.01Q13.57 8.51 12.55 6.44L12.55 6.44L13.21 6.44Q13.31 8.29 13.42 9.98Q13.52 11.67 13.58 13.05Q13.64 14.42 13.64 15.29L13.64 15.29L13.64 27ZM41.13 27.38L41.13 27.38Q38.26 27.38 36.16 26.14Q34.06 24.90 32.92 22.68Q31.79 20.47 31.79 17.53L31.79 17.53Q31.79 14.56 32.92 12.35Q34.06 10.13 36.16 8.89Q38.26 7.65 41.13 7.65L41.13 7.65Q44.02 7.65 46.12 8.89Q48.21 10.13 49.35 12.35Q50.48 14.56 50.48 17.53L50.48 17.53Q50.48 20.47 49.35 22.68Q48.21 24.90 46.12 26.14Q44.02 27.38 41.13 27.38ZM41.13 23.34L41.13 23.34Q42.50 23.34 43.42 22.58Q44.35 21.82 44.81 20.50Q45.27 19.17 45.27 17.52L45.27 17.52Q45.27 15.82 44.81 14.51Q44.35 13.19 43.42 12.44Q42.50 11.69 41.13 11.69L41.13 11.69Q39.77 11.69 38.85 12.44Q37.94 13.19 37.48 14.51Q37.02 15.82 37.02 17.52L37.02 17.52Q37.02 19.17 37.48 20.50Q37.94 21.82 38.85 22.58Q39.77 23.34 41.13 23.34ZM58.77 27.32L58.77 27.32Q56.56 27.32 54.80 26.19Q53.03 25.05 52.00 22.86Q50.98 20.66 50.98 17.48L50.98 17.48Q50.98 14.22 52.04 12.03Q53.10 9.84 54.86 8.75Q56.62 7.65 58.74 7.65L58.74 7.65Q60.36 7.65 61.44 8.20Q62.51 8.75 63.18 9.55Q63.85 10.35 64.17 11.11L64.17 11.11L64.34 11.11L64.34 1.54L69.47 1.54L69.47 27L64.43 27L64.43 23.94L64.17 23.94Q63.83 24.71 63.15 25.49Q62.48 26.27 61.40 26.79Q60.32 27.32 58.77 27.32ZM60.34 23.21L60.34 23.21Q61.64 23.21 62.56 22.49Q63.49 21.77 63.96 20.48Q64.44 19.19 64.44 17.46L64.44 17.46Q64.44 15.72 63.97 14.45Q63.50 13.17 62.58 12.47Q61.66 11.76 60.34 11.76L60.34 11.76Q58.99 11.76 58.08 12.49Q57.16 13.23 56.70 14.51Q56.24 15.79 56.24 17.46L56.24 17.46Q56.24 19.14 56.71 20.44Q57.18 21.74 58.09 22.47Q59.01 23.21 60.34 23.21ZM80.20 27.38L80.20 27.38Q77.28 27.38 75.16 26.18Q73.04 24.98 71.90 22.78Q70.76 20.57 70.76 17.55L70.76 17.55Q70.76 14.59 71.89 12.37Q73.02 10.15 75.09 8.90Q77.16 7.65 79.94 7.65L79.94 7.65Q81.82 7.65 83.45 8.25Q85.07 8.85 86.30 10.06Q87.53 11.26 88.22 13.07Q88.91 14.88 88.91 17.34L88.91 17.34L88.91 18.78L72.87 18.78L72.87 15.57L86.40 15.57L84.01 16.42Q84.01 14.93 83.56 13.83Q83.10 12.73 82.21 12.12Q81.31 11.52 79.98 11.52L79.98 11.52Q78.66 11.52 77.73 12.13Q76.80 12.75 76.32 13.80Q75.84 14.85 75.84 16.20L75.84 16.20L75.84 18.47Q75.84 20.13 76.40 21.26Q76.95 22.39 77.95 22.95Q78.95 23.51 80.28 23.51L80.28 23.51Q81.19 23.51 81.92 23.26Q82.66 23.00 83.18 22.50Q83.70 21.99 83.97 21.26L83.97 21.26L88.62 22.13Q88.16 23.70 87.02 24.89Q85.87 26.08 84.15 26.73Q82.44 27.38 80.20 27.38ZM90.14 1.54L95.27 1.54L95.27 27L90.14 27L90.14 1.54ZM102.48 27L97.35 27L97.35 7.89L102.48 7.89L102.48 27ZM99.92 5.40L99.92 5.40Q98.75 5.40 97.93 4.63Q97.11 3.86 97.11 2.77L97.11 2.77Q97.11 1.67 97.93 0.90Q98.75 0.13 99.92 0.13L99.92 0.13Q101.08 0.13 101.91 0.90Q102.74 1.66 102.74 2.77L102.74 2.77Q102.74 3.86 101.91 4.63Q101.08 5.40 99.92 5.40ZM109.69 15.94L109.69 15.94L109.69 27L104.56 27L104.56 7.89L109.40 7.89L109.48 12.66L109.18 12.66Q109.93 10.27 111.46 8.96Q112.99 7.65 115.41 7.65L115.41 7.65Q117.40 7.65 118.87 8.52Q120.34 9.38 121.16 11.00Q121.98 12.61 121.98 14.85L121.98 14.85L121.98 27L116.85 27L116.85 15.74Q116.85 13.96 115.94 12.95Q115.02 11.94 113.40 11.94L113.40 11.94Q112.32 11.94 111.47 12.41Q110.63 12.88 110.16 13.77Q109.69 14.66 109.69 15.94ZM132.71 27.38L132.71 27.38Q129.78 27.38 127.67 26.18Q125.55 24.98 124.41 22.78Q123.27 20.57 123.27 17.55L123.27 17.55Q123.27 14.59 124.40 12.37Q125.53 10.15 127.60 8.90Q129.66 7.65 132.45 7.65L132.45 7.65Q134.33 7.65 135.95 8.25Q137.58 8.85 138.81 10.06Q140.04 11.26 140.73 13.07Q141.42 14.88 141.42 17.34L141.42 17.34L141.42 18.78L125.38 18.78L125.38 15.57L138.91 15.57L136.52 16.42Q136.52 14.93 136.06 13.83Q135.61 12.73 134.71 12.12Q133.82 11.52 132.48 11.52L132.48 11.52Q131.17 11.52 130.24 12.13Q129.31 12.75 128.83 13.80Q128.35 14.85 128.35 16.20L128.35 16.20L128.35 18.47Q128.35 20.13 128.90 21.26Q129.46 22.39 130.46 22.95Q131.46 23.51 132.79 23.51L132.79 23.51Q133.70 23.51 134.43 23.26Q135.17 23.00 135.69 22.50Q136.21 21.99 136.48 21.26L136.48 21.26L141.13 22.13Q140.67 23.70 139.53 24.89Q138.38 26.08 136.66 26.73Q134.95 27.38 132.71 27.38Z"/></g>
        
      </svg>
    